<svg width="20" height="19" viewBox="0 0 20 19" fill="none" xmlns="http://www.w3.org/2000/svg">
<path d="M9.99996 17.2419C14.2757 17.2419 17.7419 13.7757 17.7419 9.49996C17.7419 5.22422 14.2757 1.75806 9.99996 1.75806C5.72422 1.75806 2.25806 5.22422 2.25806 9.49996C2.25806 13.7757 5.72422 17.2419 9.99996 17.2419Z" stroke="white" stroke-width="1.16129" stroke-linecap="round" stroke-linejoin="round"/>
<path d="M6.90323 2.53223H7.67742C6.16775 7.0535 6.16775 11.9464 7.67742 16.4677H6.90323" stroke="white" stroke-width="1.16129" stroke-linecap="round" stroke-linejoin="round"/>
<path d="M12.3225 2.53223C13.8322 7.0535 13.8322 11.9464 12.3225 16.4677" stroke="white" stroke-width="1.16129" stroke-linecap="round" stroke-linejoin="round"/>
<path d="M3.03223 12.5967V11.8225C7.5535 13.3322 12.4464 13.3322 16.9677 11.8225V12.5967" stroke="white" stroke-width="1.16129" stroke-linecap="round" stroke-linejoin="round"/>
<path d="M3.03223 7.17742C7.5535 5.66775 12.4464 5.66775 16.9677 7.17742" stroke="white" stroke-width="1.16129" stroke-linecap="round" stroke-linejoin="round"/>
</svg>
